<svg width="28" height="28" viewBox="0 0 28 28" fill="none" xmlns="http://www.w3.org/2000/svg">
    <path d="M7.4375 17.0625L3.9375 16.1875C3.9375 16.1875 3.9375 13.5625 4.8125 10.9375C5.6875 8.3125 11.8125 8.3125 11.8125 8.3125L7.4375 17.0625ZM10.9375 20.5625L11.8125 24.0625C11.8125 24.0625 14.4375 24.0625 17.0625 23.1875C19.6875 22.3125 19.6875 16.1875 19.6875 16.1875L10.9375 20.5625ZM7.4375 17.0625L10.9375 20.5625C10.9375 20.5625 19.6875 17.0625 22.3125 12.6875C24.9375 8.3125 24.9375 3.0625 24.9375 3.0625C24.9375 3.0625 19.6875 3.0625 15.3125 5.6875C10.9375 8.3125 7.4375 17.0625 7.4375 17.0625Z" stroke="#C684D0" stroke-width="2.625" stroke-linecap="round" stroke-linejoin="round" />
    <path d="M3.0625 24.9375L6.5625 23.1875L4.8125 21.4375L3.0625 24.9375Z" fill="#C684D0" stroke="#C684D0" stroke-width="2.625" stroke-linecap="round" stroke-linejoin="round" />
    <path d="M17.9375 10.9375C18.4207 10.9375 18.8125 10.5457 18.8125 10.0625C18.8125 9.57925 18.4207 9.1875 17.9375 9.1875C17.4543 9.1875 17.0625 9.57925 17.0625 10.0625C17.0625 10.5457 17.4543 10.9375 17.9375 10.9375Z" fill="#C684D0" stroke="#C684D0" stroke-width="2.625" stroke-linecap="round" stroke-linejoin="round" />
</svg>
    